<svg width="193" height="32" viewBox="0 0 193 32" fill="none" xmlns="http://www.w3.org/2000/svg">
<path d="M70.2304 12.155H63.2099L65.6753 0H6.27399L0 31.4003H23.6809L25.2914 23.297H11.298L12.0982 19.2454H26.1008L27.5219 12.155H13.5518L14.3499 8.10331H36.5854L31.9311 31.4003H41.5872L46.2395 8.10331H54.3459L49.6935 31.4003H59.4236L61.8313 19.2454H68.8498L66.4441 31.4003H76.1275L82.4056 0H72.6958L70.2304 12.155ZM111.661 4.05165H114.891L115.691 0H112.476L111.661 4.05165ZM119.945 4.05165H123.177L123.976 0H120.761L119.945 4.05165ZM150.158 4.05165H153.389L154.191 0H150.974L150.158 4.05165ZM166.328 10.0359C160.691 10.0359 156.735 14.0268 155.469 20.9876C155.27 22.077 155.168 23.1821 155.165 24.2897C155.165 29.0443 158.035 32 162.662 32C163.986 32.0035 165.298 31.7395 166.518 31.224C167.737 30.7085 168.841 29.9519 169.761 28.9997L169.79 28.9693L167.998 26.7733L167.965 26.7348L167.931 26.7713C167.32 27.5369 166.544 28.1552 165.661 28.5805C164.779 29.0059 163.812 29.2274 162.832 29.2286C160.627 29.2286 158.27 27.9058 158.27 24.2026C158.278 23.1284 158.392 22.0576 158.61 21.0058C158.942 18.749 159.893 16.6284 161.357 14.8797C161.948 14.2288 162.669 13.7085 163.472 13.3523C164.276 12.9962 165.145 12.8119 166.025 12.8113C166.868 12.7733 167.704 12.975 168.437 13.3931C169.17 13.8112 169.77 14.4285 170.166 15.1734L170.193 15.216L172.474 13.2793L172.506 13.2509L172.482 13.2165C171.826 12.1923 170.912 11.359 169.831 10.8006C168.751 10.2423 167.542 9.97852 166.328 10.0359V10.0359ZM186.944 9.58115C185.811 9.52512 184.679 9.71235 183.624 10.1303C182.569 10.5482 181.616 11.1871 180.828 12.004L183.251 0H180.127L173.851 31.4003H176.975L179.58 18.2091C180.697 12.6503 185.01 12.3687 185.861 12.3687C186.368 12.3169 186.881 12.3777 187.363 12.5465C187.844 12.7154 188.283 12.9883 188.647 13.3458C189.011 13.7033 189.292 14.1366 189.47 14.6149C189.647 15.0933 189.718 15.6049 189.675 16.1134C189.66 16.783 189.586 17.4499 189.456 18.1068L186.807 31.4003H189.926L192.667 17.8182C192.809 17.1127 192.882 16.3953 192.886 15.6759C192.942 14.8741 192.828 14.0695 192.552 13.3148C192.275 12.5602 191.842 11.8725 191.281 11.297C190.72 10.7215 190.043 10.2711 189.296 9.97542C188.549 9.6797 187.747 9.54534 186.944 9.58115V9.58115ZM144.83 31.3487L144.82 31.4013H147.901L152.104 10.1301H149.076L144.83 31.3487ZM88.3382 13.1112L88.3291 13.1689H98.7844L84.9997 28.8336L84.9936 28.8417L84.476 31.4013H99.3223L99.9067 28.3626H88.8082L102.633 12.6979L102.64 12.6878L103.159 10.1301H88.9156L88.3382 13.1112ZM139.702 9.87084C138.59 9.84165 137.486 10.0698 136.477 10.5375C135.467 11.0053 134.58 11.6999 133.883 12.5672L134.361 10.1778L134.369 10.1301H131.33L127.13 31.3487L127.122 31.4013H130.206L132.775 18.3854C133.432 15.0478 135.984 12.6239 138.846 12.6239C139.423 12.6101 139.994 12.7383 140.51 12.9972C141.026 13.2562 141.47 13.6379 141.803 14.1089L141.833 14.1474L144.334 11.8946L144.31 11.8643C143.744 11.2037 143.034 10.6809 142.236 10.3355C141.438 9.99012 140.571 9.8312 139.702 9.87084V9.87084ZM121.096 10.1301H124.22L124.212 10.1808L120.014 31.4013H116.974L116.984 31.3487L117.387 29.1405C116.609 29.9804 115.658 30.6406 114.6 31.0751C113.541 31.5097 112.401 31.7081 111.257 31.6566C110.465 31.6921 109.675 31.5595 108.938 31.2677C108.201 30.9758 107.534 30.5313 106.981 29.9633C106.428 29.3953 106.001 28.7166 105.729 27.972C105.457 27.2274 105.346 26.4336 105.403 25.6429C105.411 24.996 105.485 24.3516 105.623 23.7194L105.658 23.5269L108.314 10.1301H111.396L111.386 10.1808L108.776 23.2454C108.652 23.8934 108.582 24.5507 108.566 25.2104C108.527 25.7149 108.599 26.222 108.777 26.6955C108.956 27.169 109.237 27.5973 109.6 27.95C109.963 28.3028 110.399 28.5713 110.877 28.7364C111.355 28.9015 111.864 28.9593 112.368 28.9055C113.203 28.9055 117.421 28.626 118.522 23.139L121.096 10.1301Z" fill="white"/>
</svg>
